# xmcd
#
# Track frame offsets:
#	150
#	22467
#	37016
#	58189
#	75647
#	90901
#	112792
#	129801
#	146246
#	160767
#	177541
#	205515
#	232305
#
# Disc length: 3260 seconds
# Revision: 0
# Processed by: cddbd v1.5.2PL0 Copyright (c) Steve Scherf et al.
# Submitted via: dBpowerAMP V12.0
#
DISCID=af0cba0d
DTITLE=The Chris O'Leary Band - Waiting For the Phone to Ring
DYEAR=2012
DGENRE=Blues
TTITLE0=Give It
TTITLE1=Without You 
TTITLE2=Louisiana Woman 
TTITLE3=Pictures Of You
TTITLE4=Hole In My Head 
TTITLE5=Waiting For the Phone to Ring
TTITLE6=Jealous Hearted Man
TTITLE7=Pockets Are Full 
TTITLE8=Trouble
TTITLE9=Questions
TTITLE10=History
TTITLE11=377-9189 
TTITLE12=The Prince
EXTD=
EXTT0=
EXTT1=
EXTT2=
EXTT3=
EXTT4=
EXTT5=
EXTT6=
EXTT7=
EXTT8=
EXTT9=
EXTT10=
EXTT11=
EXTT12=
PLAYORDER=
